<svg xmlns="http://www.w3.org/2000/svg" xmlns:xlink="http://www.w3.org/1999/xlink" width="1352pt" height="280" viewBox="0 0 1351.73 210"><g id="graph0" class="graph" transform="scale(1 1) rotate(0) translate(4 206)"><title>%3</title><polygon fill="#fff" stroke="transparent" points="-4 4 -4 -206 1347.73 -206 1347.73 4 -4 4"/><g id="node1" class="node"><title>4551405072</title><polygon fill="none" stroke="#000" points="1179.54 -82.5 1179.54 -118.5 1343.73 -118.5 1343.73 -82.5 1179.54 -82.5"/><text x="1220.19" y="-96.3" font-family="Times,serif" font-size="14" text-anchor="middle">data 0.1024</text><polyline fill="none" stroke="#000" points="1260.85 -82.5 1260.85 -118.5"/><text x="1302.29" y="-96.3" font-family="Times,serif" font-size="14" text-anchor="middle">grad 1.0000</text></g><g id="node2" class="node"><title>4551405072ReLU</title><ellipse cx="1111.82" cy="-100.5" fill="none" stroke="#000" rx="31.94" ry="18"/><text x="1111.82" y="-96.3" font-family="Times,serif" font-size="14" text-anchor="middle">ReLU</text></g><g id="edge1" class="edge"><title>4551405072ReLU-&gt;4551405072</title><path fill="none" stroke="#000" d="M1143.8,-100.5C1151.57,-100.5 1160.31,-100.5 1169.43,-100.5"/><polygon fill="#000" stroke="#000" points="1169.43 -104 1179.43 -100.5 1169.43 -97 1169.43 -104"/></g><g id="node3" class="node"><title>4551371912</title><polygon fill="none" stroke="#000" points="587.38 -110.5 587.38 -146.5 751.57 -146.5 751.57 -110.5 587.38 -110.5"/><text x="628.04" y="-124.3" font-family="Times,serif" font-size="14" text-anchor="middle">data 0.2355</text><polyline fill="none" stroke="#000" points="668.7 -110.5 668.7 -146.5"/><text x="710.14" y="-124.3" font-family="Times,serif" font-size="14" text-anchor="middle">grad 1.0000</text></g><g id="node15" class="node"><title>4551371744+</title><ellipse cx="816.9" cy="-100.5" fill="none" stroke="#000" rx="27" ry="18"/><text x="816.9" y="-96.3" font-family="Times,serif" font-size="14" text-anchor="middle">+</text></g><g id="edge9" class="edge"><title>4551371912-&gt;4551371744+</title><path fill="none" stroke="#000" d="M751.69,-112.86C761.89,-110.9 771.86,-108.98 780.78,-107.26"/><polygon fill="#000" stroke="#000" points="781.58 -110.67 790.73 -105.35 780.25 -103.8 781.58 -110.67"/></g><g id="node4" class="node"><title>4551371912+</title><ellipse cx="522.05" cy="-128.5" fill="none" stroke="#000" rx="27" ry="18"/><text x="522.05" y="-124.3" font-family="Times,serif" font-size="14" text-anchor="middle">+</text></g><g id="edge2" class="edge"><title>4551371912+-&gt;4551371912</title><path fill="none" stroke="#000" d="M549.38,-128.5C557.55,-128.5 567.05,-128.5 577.06,-128.5"/><polygon fill="#000" stroke="#000" points="577.21 -132 587.21 -128.5 577.21 -125 577.21 -132"/></g><g id="node5" class="node"><title>4551370904</title><polygon fill="none" stroke="#000" points="0 -138.5 0 -174.5 164.19 -174.5 164.19 -138.5 0 -138.5"/><text x="40.66" y="-152.3" font-family="Times,serif" font-size="14" text-anchor="middle">data 1.0000</text><polyline fill="none" stroke="#000" points="81.32 -138.5 81.32 -174.5"/><text x="122.76" y="-152.3" font-family="Times,serif" font-size="14" text-anchor="middle">grad 0.2355</text></g><g id="node11" class="node"><title>4551371576*</title><ellipse cx="227.19" cy="-128.5" fill="none" stroke="#000" rx="27" ry="18"/><text x="227.19" y="-124.3" font-family="Times,serif" font-size="14" text-anchor="middle">*</text></g><g id="edge13" class="edge"><title>4551370904-&gt;4551371576*</title><path fill="none" stroke="#000" d="M164.26,-140.62C173.66,-138.78 182.84,-136.98 191.13,-135.36"/><polygon fill="#000" stroke="#000" points="191.95 -138.77 201.1 -133.41 190.61 -131.9 191.95 -138.77"/></g><g id="node6" class="node"><title>4551371968</title><polygon fill="none" stroke="#000" points="585.05 -55.5 585.05 -91.5 753.9 -91.5 753.9 -55.5 585.05 -55.5"/><text x="628.04" y="-69.3" font-family="Times,serif" font-size="14" text-anchor="middle">data -0.1331</text><polyline fill="none" stroke="#000" points="671.03 -55.5 671.03 -91.5"/><text x="712.47" y="-69.3" font-family="Times,serif" font-size="14" text-anchor="middle">grad 1.0000</text></g><g id="edge10" class="edge"><title>4551371968-&gt;4551371744+</title><path fill="none" stroke="#000" d="M754.23,-89.05C763.55,-90.78 772.63,-92.47 780.82,-93.99"/><polygon fill="#000" stroke="#000" points="780.21 -97.43 790.68 -95.82 781.49 -90.55 780.21 -97.43"/></g><g id="node7" class="node"><title>4551371968*</title><ellipse cx="522.05" cy="-73.5" fill="none" stroke="#000" rx="27" ry="18"/><text x="522.05" y="-69.3" font-family="Times,serif" font-size="14" text-anchor="middle">*</text></g><g id="edge3" class="edge"><title>4551371968*-&gt;4551371968</title><path fill="none" stroke="#000" d="M549.38,-73.5C556.9,-73.5 565.55,-73.5 574.68,-73.5"/><polygon fill="#000" stroke="#000" points="574.75 -77 584.75 -73.5 574.75 -70 574.75 -77"/></g><g id="node8" class="node"><title>4551370960</title><polygon fill="none" stroke="#000" points="292.52 -165.5 292.52 -201.5 456.72 -201.5 456.72 -165.5 292.52 -165.5"/><text x="333.18" y="-179.3" font-family="Times,serif" font-size="14" text-anchor="middle">data 0.0000</text><polyline fill="none" stroke="#000" points="373.84 -165.5 373.84 -201.5"/><text x="415.28" y="-179.3" font-family="Times,serif" font-size="14" text-anchor="middle">grad 1.0000</text></g><g id="edge11" class="edge"><title>4551370960-&gt;4551371912+</title><path fill="none" stroke="#000" d="M434.26,-165.44C442.63,-162.59 451.1,-159.57 459.05,-156.5 469.49,-152.47 480.69,-147.59 490.66,-143.04"/><polygon fill="#000" stroke="#000" points="492.17 -146.19 499.78 -138.81 489.23 -139.84 492.17 -146.19"/></g><g id="node9" class="node"><title>4551371016</title><polygon fill="none" stroke="#000" points="290.19 -55.5 290.19 -91.5 459.05 -91.5 459.05 -55.5 290.19 -55.5"/><text x="330.85" y="-69.3" font-family="Times,serif" font-size="14" text-anchor="middle">data 0.0665</text><polyline fill="none" stroke="#000" points="371.51 -55.5 371.51 -91.5"/><text x="415.28" y="-69.3" font-family="Times,serif" font-size="14" text-anchor="middle">grad -2.0000</text></g><g id="edge14" class="edge"><title>4551371016-&gt;4551371968*</title><path fill="none" stroke="#000" d="M459.37,-73.5C468.23,-73.5 476.86,-73.5 484.73,-73.5"/><polygon fill="#000" stroke="#000" points="484.93 -77 494.93 -73.5 484.93 -70 484.93 -77"/></g><g id="node10" class="node"><title>4551371576</title><polygon fill="none" stroke="#000" points="292.52 -110.5 292.52 -146.5 456.72 -146.5 456.72 -110.5 292.52 -110.5"/><text x="333.18" y="-124.3" font-family="Times,serif" font-size="14" text-anchor="middle">data 0.2355</text><polyline fill="none" stroke="#000" points="373.84 -110.5 373.84 -146.5"/><text x="415.28" y="-124.3" font-family="Times,serif" font-size="14" text-anchor="middle">grad 1.0000</text></g><g id="edge6" class="edge"><title>4551371576-&gt;4551371912+</title><path fill="none" stroke="#000" d="M456.84,-128.5C466.64,-128.5 476.24,-128.5 484.9,-128.5"/><polygon fill="#000" stroke="#000" points="484.95 -132 494.95 -128.5 484.95 -125 484.95 -132"/></g><g id="edge4" class="edge"><title>4551371576*-&gt;4551371576</title><path fill="none" stroke="#000" d="M254.53,-128.5C262.69,-128.5 272.2,-128.5 282.21,-128.5"/><polygon fill="#000" stroke="#000" points="282.36 -132 292.36 -128.5 282.36 -125 282.36 -132"/></g><g id="node12" class="node"><title>4551370624</title><polygon fill="none" stroke="#000" points="290.19 -.5 290.19 -36.5 459.05 -36.5 459.05 -.5 290.19 -.5"/><text x="333.18" y="-14.3" font-family="Times,serif" font-size="14" text-anchor="middle">data -2.0000</text><polyline fill="none" stroke="#000" points="376.17 -.5 376.17 -36.5"/><text x="417.61" y="-14.3" font-family="Times,serif" font-size="14" text-anchor="middle">grad 0.0665</text></g><g id="edge12" class="edge"><title>4551370624-&gt;4551371968*</title><path fill="none" stroke="#000" d="M434.26,-36.56C442.63,-39.41 451.1,-42.43 459.05,-45.5 469.49,-49.53 480.69,-54.41 490.66,-58.96"/><polygon fill="#000" stroke="#000" points="489.23 -62.16 499.78 -63.19 492.17 -55.81 489.23 -62.16"/></g><g id="node13" class="node"><title>4551371184</title><polygon fill="none" stroke="#000" points="0 -83.5 0 -119.5 164.19 -119.5 164.19 -83.5 0 -83.5"/><text x="40.66" y="-97.3" font-family="Times,serif" font-size="14" text-anchor="middle">data 0.2355</text><polyline fill="none" stroke="#000" points="81.32 -83.5 81.32 -119.5"/><text x="122.76" y="-97.3" font-family="Times,serif" font-size="14" text-anchor="middle">grad 1.0000</text></g><g id="edge8" class="edge"><title>4551371184-&gt;4551371576*</title><path fill="none" stroke="#000" d="M164.26,-116.81C173.66,-118.59 182.84,-120.32 191.13,-121.88"/><polygon fill="#000" stroke="#000" points="190.62 -125.35 201.1 -123.76 191.92 -118.47 190.62 -125.35"/></g><g id="node14" class="node"><title>4551371744</title><polygon fill="none" stroke="#000" points="879.9 -82.5 879.9 -118.5 1044.1 -118.5 1044.1 -82.5 879.9 -82.5"/><text x="920.56" y="-96.3" font-family="Times,serif" font-size="14" text-anchor="middle">data 0.1024</text><polyline fill="none" stroke="#000" points="961.22 -82.5 961.22 -118.5"/><text x="1002.66" y="-96.3" font-family="Times,serif" font-size="14" text-anchor="middle">grad 1.0000</text></g><g id="edge7" class="edge"><title>4551371744-&gt;4551405072ReLU</title><path fill="none" stroke="#000" d="M1044.26,-100.5C1053.12,-100.5 1061.84,-100.5 1069.9,-100.5"/><polygon fill="#000" stroke="#000" points="1070.08 -104 1080.08 -100.5 1070.08 -97 1070.08 -104"/></g><g id="edge5" class="edge"><title>4551371744+-&gt;4551371744</title><path fill="none" stroke="#000" d="M844.15,-100.5C851.73,-100.5 860.47,-100.5 869.69,-100.5"/><polygon fill="#000" stroke="#000" points="869.84 -104 879.84 -100.5 869.84 -97 869.84 -104"/></g></g></svg>